<?xml version="1.0" encoding="utf-8"?>
<!-- Generator: Adobe Illustrator 21.0.0, SVG Export Plug-In . SVG Version: 6.00 Build 0)  -->
<svg version="1.1" id="Layer_1" xmlns="http://www.w3.org/2000/svg" xmlns:xlink="http://www.w3.org/1999/xlink" x="0px" y="0px"
	 viewBox="0 0 100 125" style="enable-background:new 0 0 100 125;" xml:space="preserve">
<style type="text/css">
	.st0{fill:#302D2D;}
</style>
<g>
	<path class="st0" d="M5,54.1v-9.5v-2.5h10.4V17.2h68.3h0.8v24.9H95v2.5v9.5H82.9c0-9.5,0-34.2,0-35.4c-1.5,0-64.6,0-66.1,0
		c0,1.2,0,25.9,0,35.4H5z M94.9,56.3v47.4H5V56.3H94.9z M57.9,79.7c0,1.4,1.1,2.5,2.5,2.5c1.4,0,2.5-1.1,2.5-2.5
		c0-1.4-1.1-2.5-2.5-2.5C59,77.2,57.9,78.3,57.9,79.7z M21,94.3c0-1.4-1.1-2.6-2.5-2.6c-1.4,0-2.5,1.1-2.5,2.6
		c0,1.4,1.1,2.5,2.5,2.5C19.8,96.8,21,95.7,21,94.3z M21,79.7c0-1.4-1.1-2.5-2.5-2.5c-1.4,0-2.5,1.1-2.5,2.5s1.1,2.5,2.5,2.5
		C19.8,82.3,21,81.1,21,79.7z M26.3,87.2c0-1.4-1.1-2.5-2.5-2.5c-1.4,0-2.5,1.1-2.5,2.5c0,1.4,1.1,2.5,2.5,2.5
		C25.1,89.8,26.3,88.6,26.3,87.2z M31.5,94.3c0-1.4-1.1-2.6-2.5-2.6c-1.4,0-2.5,1.1-2.5,2.6c0,1.4,1.1,2.5,2.5,2.5
		C30.3,96.8,31.5,95.7,31.5,94.3z M31.5,79.7c0-1.4-1.1-2.5-2.5-2.5c-1.4,0-2.5,1.1-2.5,2.5s1.1,2.5,2.5,2.5
		C30.3,82.3,31.5,81.1,31.5,79.7z M36.8,87.2c0-1.4-1.1-2.5-2.5-2.5c-1.4,0-2.5,1.1-2.5,2.5c0,1.4,1.1,2.5,2.5,2.5
		C35.7,89.8,36.8,88.6,36.8,87.2z M42,94.3c0-1.4-1.1-2.6-2.5-2.6c-1.4,0-2.5,1.1-2.5,2.6c0,1.4,1.1,2.5,2.5,2.5
		C40.8,96.8,42,95.7,42,94.3z M42,79.7c0-1.4-1.1-2.5-2.5-2.5c-1.4,0-2.5,1.1-2.5,2.5s1.1,2.5,2.5,2.5C40.8,82.3,42,81.1,42,79.7z
		 M47.3,87.2c0-1.4-1.1-2.5-2.5-2.5c-1.4,0-2.5,1.1-2.5,2.5c0,1.4,1.1,2.5,2.5,2.5C46.2,89.8,47.3,88.6,47.3,87.2z M52.5,94.3
		c0-1.4-1.1-2.6-2.5-2.6c-1.4,0-2.5,1.1-2.5,2.6c0,1.4,1.1,2.5,2.5,2.5C51.3,96.8,52.5,95.7,52.5,94.3z M52.5,79.7
		c0-1.4-1.1-2.5-2.5-2.5c-1.4,0-2.5,1.1-2.5,2.5s1.1,2.5,2.5,2.5C51.3,82.3,52.5,81.1,52.5,79.7z M57.8,87.2c0-1.4-1.1-2.5-2.5-2.5
		c-1.4,0-2.5,1.1-2.5,2.5c0,1.4,1.1,2.5,2.5,2.5C56.7,89.8,57.8,88.6,57.8,87.2z M63,94.3c0-1.4-1.1-2.6-2.5-2.6
		c-1.4,0-2.5,1.1-2.5,2.6c0,1.4,1.1,2.5,2.5,2.5C61.9,96.8,63,95.7,63,94.3z M68.3,87.2c0-1.4-1.1-2.5-2.5-2.5s-2.5,1.1-2.5,2.5
		c0,1.4,1.1,2.5,2.5,2.5C67.2,89.8,68.3,88.6,68.3,87.2z M73.5,94.3c0-1.4-1.1-2.6-2.5-2.6c-1.4,0-2.6,1.1-2.6,2.6
		c0,1.4,1.1,2.5,2.6,2.5C72.4,96.8,73.5,95.7,73.5,94.3z M73.5,79.7c0-1.4-1.1-2.5-2.5-2.5c-1.4,0-2.6,1.1-2.6,2.5s1.1,2.5,2.6,2.5
		C72.4,82.3,73.5,81.1,73.5,79.7z M78.8,87.2c0-1.4-1.1-2.5-2.6-2.5c-1.4,0-2.5,1.1-2.5,2.5c0,1.4,1.1,2.5,2.5,2.5
		C77.7,89.8,78.8,88.6,78.8,87.2z M84,94.3c0-1.4-1.1-2.6-2.5-2.6s-2.5,1.1-2.5,2.6c0,1.4,1.1,2.5,2.5,2.5
		C82.9,96.8,84,95.7,84,94.3z M84,79.7c0-1.4-1.1-2.5-2.5-2.5s-2.5,1.1-2.5,2.5s1.1,2.5,2.5,2.5C82.9,82.3,84,81.1,84,79.7z
		 M88.3,47.4H11.7V49h76.6L88.3,47.4L88.3,47.4z"/>
</g>
</svg>
