<?xml version="1.0" encoding="utf-8"?>
<!-- Generator: Adobe Illustrator 21.0.0, SVG Export Plug-In . SVG Version: 6.00 Build 0)  -->
<svg version="1.1" id="Layer_1" xmlns="http://www.w3.org/2000/svg" xmlns:xlink="http://www.w3.org/1999/xlink" x="0px" y="0px"
	 viewBox="0 0 96.4 92.8" style="enable-background:new 0 0 96.4 92.8;" xml:space="preserve">
<style type="text/css">
	.st0{fill:#302D2D;}
</style>
<g>
	<path class="st0" d="M0,39.5V29.3v-2.6h11.1V0h73.2h0.8v26.7h11.3v2.6v10.2H83.5c0-10.2,0-36.6,0-37.9c-1.6,0-69.2,0-70.7,0
		c0,1.3,0,27.7,0,37.9C12.8,39.5,0,39.5,0,39.5z M96.3,42v50.8H0.1V42H96.3z M56.7,67c0,1.5,1.2,2.7,2.7,2.7s2.7-1.2,2.7-2.7
		s-1.2-2.7-2.7-2.7S56.7,65.5,56.7,67z M17.1,82.6c0-1.5-1.2-2.7-2.7-2.7s-2.7,1.2-2.7,2.7s1.2,2.7,2.7,2.7
		C15.9,85.3,17.1,84.1,17.1,82.6z M17.1,67c0-1.5-1.2-2.7-2.7-2.7s-2.7,1.2-2.7,2.7s1.2,2.7,2.7,2.7C15.9,69.7,17.1,68.5,17.1,67z
		 M22.8,75c0-1.5-1.2-2.7-2.7-2.7s-2.7,1.2-2.7,2.7s1.2,2.7,2.7,2.7S22.8,76.5,22.8,75z M28.3,82.6c0-1.5-1.2-2.7-2.7-2.7
		s-2.7,1.2-2.7,2.7s1.2,2.7,2.7,2.7C27.1,85.3,28.3,84.1,28.3,82.6z M28.3,67c0-1.5-1.2-2.7-2.7-2.7s-2.7,1.2-2.7,2.7
		s1.2,2.7,2.7,2.7C27.1,69.7,28.3,68.5,28.3,67z M34.1,75c0-1.5-1.2-2.7-2.7-2.7s-2.7,1.2-2.7,2.7s1.2,2.7,2.7,2.7
		C32.8,77.7,34.1,76.5,34.1,75z M39.6,82.6c0-1.5-1.2-2.7-2.7-2.7s-2.7,1.2-2.7,2.7s1.2,2.7,2.7,2.7C38.4,85.3,39.6,84.1,39.6,82.6z
		 M39.6,67c0-1.5-1.2-2.7-2.7-2.7s-2.7,1.2-2.7,2.7s1.2,2.7,2.7,2.7C38.4,69.7,39.6,68.5,39.6,67z M45.3,75c0-1.5-1.2-2.7-2.7-2.7
		s-2.7,1.2-2.7,2.7s1.2,2.7,2.7,2.7C44.1,77.7,45.3,76.5,45.3,75z M50.9,82.6c0-1.5-1.2-2.7-2.7-2.7s-2.7,1.2-2.7,2.7
		s1.2,2.7,2.7,2.7C49.6,85.3,50.9,84.1,50.9,82.6z M50.9,67c0-1.5-1.2-2.7-2.7-2.7s-2.7,1.2-2.7,2.7s1.2,2.7,2.7,2.7
		C49.6,69.7,50.9,68.5,50.9,67z M56.6,75c0-1.5-1.2-2.7-2.7-2.7s-2.7,1.2-2.7,2.7s1.2,2.7,2.7,2.7C55.3,77.7,56.6,76.5,56.6,75z
		 M62.1,82.6c0-1.5-1.2-2.7-2.7-2.7s-2.7,1.2-2.7,2.7s1.2,2.7,2.7,2.7C60.9,85.3,62.1,84.1,62.1,82.6z M67.8,75
		c0-1.5-1.2-2.7-2.7-2.7c-1.5,0-2.7,1.2-2.7,2.7s1.2,2.7,2.7,2.7C66.6,77.7,67.8,76.5,67.8,75z M73.4,82.6c0-1.5-1.2-2.7-2.7-2.7
		S68,81.1,68,82.6s1.2,2.7,2.7,2.7C72.2,85.3,73.4,84.1,73.4,82.6z M73.4,67c0-1.5-1.2-2.7-2.7-2.7S68,65.5,68,67s1.2,2.7,2.7,2.7
		C72.2,69.7,73.4,68.5,73.4,67z M79.1,75c0-1.5-1.2-2.7-2.7-2.7s-2.7,1.2-2.7,2.7s1.2,2.7,2.7,2.7C77.9,77.7,79.1,76.5,79.1,75z
		 M84.6,82.6c0-1.5-1.2-2.7-2.7-2.7s-2.7,1.2-2.7,2.7s1.2,2.7,2.7,2.7C83.4,85.3,84.6,84.1,84.6,82.6z M84.6,67
		c0-1.5-1.2-2.7-2.7-2.7s-2.7,1.2-2.7,2.7s1.2,2.7,2.7,2.7C83.4,69.7,84.6,68.5,84.6,67z M89.2,32.3h-82v1.8h82V32.3L89.2,32.3z"/>
</g>
</svg>
